<svg width="40" height="41" viewBox="0 0 40 41" fill="none" xmlns="http://www.w3.org/2000/svg">
<g id="social_icons">
<rect x="0.5" y="1.1958" width="39" height="39" rx="19.5" stroke="white"/>
<path id="Vector" d="M27.7157 28.6958C27.0408 28.6958 26.2172 28.6757 25.8655 28.6671C25.7653 28.6646 25.7021 28.663 25.6813 28.6628C24.9144 28.6591 24.2226 28.3623 23.6817 27.8042C23.345 27.4568 23.03 27.0898 22.7254 26.7347L22.7148 26.7224C22.5527 26.5337 22.3852 26.3386 22.2189 26.1519C22.0728 25.9881 21.9381 25.8564 21.8072 25.7498C21.7315 25.6879 21.6759 25.667 21.6525 25.6623C21.6411 25.6756 21.6185 25.7074 21.5951 25.7706C21.4833 26.0733 21.3528 26.9981 21.3264 27.2726C21.2716 28.0515 20.7653 28.5642 20.004 28.6089C19.762 28.6229 19.5248 28.6301 19.2984 28.6301C17.7946 28.6301 16.5154 28.3153 15.3876 27.6676C14.2683 27.0249 13.272 26.0935 12.3419 24.8204C11.2222 23.2884 10.2183 21.5221 9.08708 19.0935C9.03902 18.9903 8.17229 17.0131 8.07606 16.7543C8.0617 16.7158 8.04996 16.6763 8.04076 16.636C7.92002 16.1044 8.07197 15.6162 8.43744 15.362C8.54894 15.2845 8.67616 15.237 8.80842 15.2237C8.85903 15.2184 9.01297 15.2029 9.69001 15.2029C10.6401 15.2029 12.0065 15.2334 12.0875 15.2364C12.0926 15.2366 12.0978 15.2368 12.103 15.2372C12.8032 15.2778 13.2937 15.6563 13.5607 16.3623C14.1781 17.9967 14.91 19.3703 15.798 20.562C15.8652 20.6528 15.9515 20.7437 16.0481 20.8263C16.1228 20.5206 16.185 20.0632 16.189 19.8302C16.205 18.9569 16.1867 18.3855 16.1427 17.5076C16.1175 17.0121 15.9616 16.8853 15.6434 16.8025C15.3596 16.7285 15.1335 16.499 15.0491 16.1993C14.9648 15.8996 15.0347 15.5743 15.233 15.3444C15.662 14.847 16.2213 14.7499 16.7619 14.719C17.0305 14.7034 17.3226 14.6958 17.6546 14.6958C17.959 14.6958 18.2638 14.7019 18.5584 14.7079C18.761 14.712 18.9636 14.7161 19.166 14.7182C19.56 14.722 19.9082 14.7605 20.2292 14.8356C20.8135 14.9719 21.2093 15.4349 21.3145 16.1057C21.3566 16.3725 21.3752 16.6349 21.3697 16.885C21.3614 17.2801 21.3491 17.6809 21.3371 18.0685L21.3364 18.0886C21.3191 18.6522 21.3013 19.2274 21.2952 19.7901C21.2913 20.1494 21.3171 20.4771 21.3721 20.7653C21.6996 20.3922 22.0254 19.9501 22.4184 19.3459C22.9576 18.5167 23.4272 17.5392 23.8961 16.2699C24.1864 15.4864 24.5297 15.2345 25.309 15.2328C26.3956 15.2299 27.4827 15.2291 28.5695 15.2328C28.8488 15.234 29.0854 15.2691 29.2937 15.34C29.8249 15.5216 30.0961 16.0473 29.969 16.6486C29.7815 17.541 29.3335 18.2701 28.9284 18.8835C28.488 19.5499 28.0277 20.2142 27.5826 20.8567C27.3459 21.1983 27.1132 21.5341 26.8824 21.8713C26.8182 21.9653 26.7541 22.0745 26.6811 22.2149C26.5208 22.526 26.5414 22.5488 26.7388 22.7674C26.977 23.0305 27.2279 23.2931 27.4706 23.547C27.8297 23.9227 28.1978 24.3079 28.5435 24.7132C28.9948 25.2432 29.3923 25.7977 29.7258 26.3622C30.0209 26.8618 30.0805 27.4026 29.8894 27.8459C29.7794 28.1014 29.486 28.5471 28.7587 28.658C28.6495 28.6741 28.4237 28.6958 27.7157 28.6958ZM21.6436 23.8942C22.0437 23.8942 22.4455 24.0498 22.8056 24.344C23.0055 24.5069 23.2037 24.6993 23.4106 24.9313C23.5874 25.1298 23.7602 25.331 23.9273 25.5257L23.9381 25.5383C24.2263 25.8743 24.524 26.2212 24.8244 26.5312C25.0608 26.775 25.3438 26.8943 25.6897 26.896C25.7098 26.8961 25.7839 26.8978 25.8974 26.9007C26.249 26.9092 27.0594 26.929 27.7155 26.929C27.8677 26.929 27.993 26.9279 28.0955 26.9262C27.8672 26.5791 27.6096 26.2368 27.3266 25.9045C27.0131 25.5369 26.6621 25.1696 26.3226 24.8144C26.0688 24.549 25.8097 24.2779 25.5553 23.9967C24.8371 23.2018 24.7342 22.3384 25.2403 21.3569C25.3487 21.1485 25.4478 20.9807 25.5533 20.8262C25.7864 20.4858 26.021 20.1471 26.2556 19.8085C26.6993 19.1682 27.154 18.5119 27.5835 17.862C27.7593 17.5958 27.945 17.3043 28.0954 16.998C27.1972 16.9959 26.2982 16.9968 25.3993 16.999C24.8917 18.3606 24.3731 19.4294 23.7703 20.3562C23.3021 21.0758 22.9104 21.6005 22.4999 22.0574C22.0591 22.5474 21.6008 22.6501 21.2937 22.6501C20.5516 22.6501 19.9543 22.0779 19.7717 21.1923C19.6834 20.7607 19.6416 20.2824 19.6472 19.7693C19.6535 19.1878 19.6715 18.6029 19.689 18.0373L19.6898 18.0101C19.7016 17.6269 19.7138 17.231 19.722 16.8442C19.7242 16.7439 19.7191 16.6381 19.7066 16.528C19.5399 16.501 19.3564 16.4868 19.1499 16.4849C18.9419 16.4825 18.7345 16.4785 18.5273 16.4743C18.2218 16.4682 17.9032 16.4616 17.5992 16.4626C17.7066 16.7442 17.7705 17.062 17.7883 17.4122C17.8346 18.3344 17.8537 18.9364 17.8367 19.8634C17.8292 20.3072 17.7146 21.1028 17.556 21.5775C17.3292 22.2626 16.7888 22.69 16.1467 22.69C15.8285 22.69 15.5099 22.5794 15.2252 22.3701C14.9495 22.1676 14.7018 21.9231 14.509 21.6631C13.5214 20.3376 12.7112 18.8202 12.0333 17.026C12.0299 17.0171 12.0267 17.0092 12.0238 17.0021C12.0231 17.002 12.0224 17.0019 12.0217 17.0019C11.8962 16.9982 10.8317 16.9753 9.97797 16.9706C10.2291 17.5499 10.5204 18.2151 10.5619 18.3054C11.6412 20.6223 12.5904 22.2959 13.6391 23.731C14.4254 24.8073 15.2519 25.5855 16.1657 26.1102C17.0482 26.617 18.0728 26.8634 19.2981 26.8634C19.4327 26.8634 19.5723 26.8605 19.7151 26.8546C19.7691 26.4199 19.889 25.5891 20.0628 25.119C20.3475 24.3518 20.9383 23.8942 21.6436 23.8942Z" fill="white"/>
</g>
</svg>
