<svg width="40" height="40" viewBox="0 0 40 40" fill="none" xmlns="http://www.w3.org/2000/svg">
<rect x="0.5" y="0.5" width="39" height="39" rx="19.5" stroke="#DFD9E3"/>
<path d="M24.2985 28.25C23.9335 28.25 23.5836 28.1398 23.2868 27.9315C23.2807 27.9272 23.2747 27.9228 23.2687 27.9184L18.8556 24.6352L17.0304 26.3012C16.7385 26.5805 16.3522 26.7341 15.9407 26.7341C15.2616 26.7341 14.6684 26.3186 14.4647 25.7001C14.4611 25.6891 14.4576 25.6781 14.4545 25.6669L13.3895 21.8524L10.0219 20.9014C9.42826 20.7338 9.02754 20.2432 9.00136 19.6517C8.97512 19.06 9.33104 18.5388 9.90803 18.3237L26.5771 12.1107C26.7743 12.0372 26.9797 12 27.1879 12C27.6926 12 28.1664 12.217 28.4878 12.5953C28.8059 12.9698 28.9289 13.4569 28.8251 13.9314L25.979 26.9454C25.8138 27.7013 25.107 28.25 24.2985 28.25ZM24.2593 26.674C24.2725 26.6823 24.2846 26.6859 24.2985 26.6859C24.3053 26.6859 24.3655 26.6843 24.3785 26.6252L27.2245 13.6112C27.2277 13.5966 27.2265 13.5907 27.2187 13.5815C27.2102 13.5715 27.1968 13.5639 27.1878 13.5639C27.1837 13.5639 27.1777 13.5653 27.1708 13.5679L11.0737 19.5676L14.2924 20.4767C14.5657 20.5538 14.7772 20.7616 14.8508 21.0249L15.9864 25.092L18.2365 23.0382C18.5295 22.7707 18.9832 22.7488 19.3029 22.9867L24.2593 26.674Z" fill="white"/>
<path d="M16.8857 25.7363C16.9113 25.8157 17.8481 24.6957 17.858 24.6129L17.4379 22.6456C17.3826 22.3865 17.4807 22.1192 17.6934 21.9502L25.3947 15.8293C25.5801 15.6725 25.3648 15.3959 25.1546 15.5204L16.0982 20.8036C15.8835 20.9289 15.7727 21.1684 15.8202 21.4045L16.8857 25.7363Z" fill="white"/>
</svg>
