<svg width="56" height="56" viewBox="0 0 56 56" fill="none" xmlns="http://www.w3.org/2000/svg">
<g id="social_icons" filter="url(#filter0_bd_1130_490)">
<rect x="8.5" y="8.5" width="39" height="39" rx="19.5" stroke="white" shape-rendering="crispEdges"/>
<path id="Vector" d="M35.7157 36C35.0408 36 34.2172 35.9799 33.8655 35.9713C33.7653 35.9688 33.7021 35.9672 33.6813 35.967C32.9144 35.9633 32.2226 35.6665 31.6817 35.1084C31.345 34.761 31.03 34.394 30.7254 34.0389L30.7148 34.0266C30.5527 33.8379 30.3852 33.6428 30.2189 33.4561C30.0728 33.2923 29.9381 33.1606 29.8072 33.054C29.7315 32.9921 29.6759 32.9712 29.6525 32.9665C29.6411 32.9798 29.6185 33.0116 29.5951 33.0748C29.4833 33.3775 29.3528 34.3023 29.3264 34.5768C29.2716 35.3557 28.7653 35.8684 28.004 35.9131C27.762 35.9271 27.5248 35.9343 27.2984 35.9343C25.7946 35.9343 24.5154 35.6195 23.3876 34.9718C22.2683 34.3291 21.272 33.3977 20.3419 32.1246C19.2222 30.5926 18.2183 28.8263 17.0871 26.3977C17.039 26.2945 16.1723 24.3173 16.0761 24.0585C16.0617 24.02 16.05 23.9805 16.0408 23.9402C15.92 23.4086 16.072 22.9204 16.4374 22.6662C16.5489 22.5887 16.6762 22.5412 16.8084 22.5279C16.859 22.5226 17.013 22.5071 17.69 22.5071C18.6401 22.5071 20.0065 22.5376 20.0875 22.5406C20.0926 22.5408 20.0978 22.541 20.103 22.5414C20.8032 22.582 21.2937 22.9605 21.5607 23.6665C22.1781 25.3009 22.91 26.6745 23.798 27.8662C23.8652 27.957 23.9515 28.0479 24.0481 28.1305C24.1228 27.8248 24.185 27.3674 24.189 27.1344C24.205 26.2611 24.1867 25.6897 24.1427 24.8118C24.1175 24.3163 23.9616 24.1895 23.6434 24.1067C23.3596 24.0327 23.1335 23.8032 23.0491 23.5035C22.9648 23.2038 23.0347 22.8785 23.233 22.6486C23.662 22.1512 24.2213 22.0541 24.7619 22.0232C25.0305 22.0076 25.3226 22 25.6546 22C25.959 22 26.2638 22.0061 26.5584 22.0121C26.761 22.0162 26.9636 22.0203 27.166 22.0224C27.56 22.0262 27.9082 22.0647 28.2292 22.1398C28.8135 22.2761 29.2093 22.7391 29.3145 23.4099C29.3566 23.6767 29.3752 23.9391 29.3697 24.1892C29.3614 24.5843 29.3491 24.9851 29.3371 25.3727L29.3364 25.3928C29.3191 25.9564 29.3013 26.5316 29.2952 27.0943C29.2913 27.4536 29.3171 27.7813 29.3721 28.0695C29.6996 27.6964 30.0254 27.2543 30.4184 26.6501C30.9576 25.8209 31.4272 24.8434 31.8961 23.5741C32.1864 22.7906 32.5297 22.5387 33.309 22.537C34.3956 22.5341 35.4827 22.5333 36.5695 22.537C36.8488 22.5382 37.0854 22.5733 37.2937 22.6442C37.8249 22.8258 38.0961 23.3515 37.969 23.9528C37.7815 24.8452 37.3335 25.5743 36.9284 26.1877C36.488 26.8541 36.0277 27.5184 35.5826 28.1609C35.3459 28.5025 35.1132 28.8383 34.8824 29.1755C34.8182 29.2695 34.7541 29.3787 34.6811 29.5191C34.5208 29.8302 34.5414 29.853 34.7388 30.0716C34.977 30.3347 35.2279 30.5973 35.4706 30.8512C35.8297 31.2269 36.1978 31.6121 36.5435 32.0174C36.9948 32.5474 37.3923 33.1019 37.7258 33.6664C38.0209 34.166 38.0805 34.7068 37.8894 35.1501C37.7794 35.4056 37.486 35.8513 36.7587 35.9622C36.6495 35.9783 36.4237 36 35.7157 36ZM29.6436 31.1984C30.0437 31.1984 30.4455 31.354 30.8056 31.6482C31.0055 31.8111 31.2037 32.0035 31.4106 32.2355C31.5874 32.434 31.7602 32.6352 31.9273 32.8299L31.9381 32.8425C32.2263 33.1785 32.524 33.5254 32.8244 33.8354C33.0608 34.0792 33.3438 34.1985 33.6897 34.2002C33.7098 34.2003 33.7839 34.202 33.8974 34.2049C34.249 34.2134 35.0594 34.2332 35.7155 34.2332C35.8677 34.2332 35.993 34.2321 36.0955 34.2304C35.8672 33.8833 35.6096 33.541 35.3266 33.2087C35.0131 32.8411 34.6621 32.4738 34.3226 32.1186C34.0688 31.8532 33.8097 31.5821 33.5553 31.3009C32.8371 30.506 32.7342 29.6426 33.2403 28.6611C33.3487 28.4527 33.4478 28.2849 33.5533 28.1304C33.7864 27.79 34.021 27.4513 34.2556 27.1127C34.6993 26.4724 35.154 25.8161 35.5835 25.1662C35.7593 24.9 35.945 24.6085 36.0954 24.3022C35.1972 24.3001 34.2982 24.301 33.3993 24.3032C32.8917 25.6648 32.3731 26.7336 31.7703 27.6604C31.3021 28.38 30.9104 28.9047 30.4999 29.3616C30.0591 29.8516 29.6008 29.9543 29.2937 29.9543C28.5516 29.9543 27.9543 29.3821 27.7717 28.4965C27.6834 28.0649 27.6416 27.5866 27.6472 27.0735C27.6535 26.492 27.6715 25.9071 27.689 25.3415L27.6898 25.3143C27.7016 24.9311 27.7138 24.5352 27.722 24.1484C27.7242 24.0481 27.7191 23.9423 27.7066 23.8322C27.5399 23.8052 27.3564 23.791 27.1499 23.7891C26.9419 23.7867 26.7345 23.7827 26.5273 23.7785C26.2218 23.7724 25.9032 23.7658 25.5992 23.7668C25.7066 24.0484 25.7705 24.3662 25.7883 24.7164C25.8346 25.6386 25.8537 26.2406 25.8367 27.1676C25.8292 27.6114 25.7146 28.407 25.556 28.8817C25.3292 29.5668 24.7888 29.9942 24.1467 29.9942C23.8285 29.9942 23.5099 29.8836 23.2252 29.6743C22.9495 29.4718 22.7018 29.2272 22.509 28.9673C21.5214 27.6418 20.7112 26.1244 20.0333 24.3302C20.0299 24.3213 20.0267 24.3134 20.0238 24.3063C20.0231 24.3062 20.0224 24.3061 20.0217 24.3061C19.8962 24.3024 18.8317 24.2795 17.978 24.2748C18.2291 24.8541 18.5204 25.5193 18.5619 25.6095C19.6412 27.9265 20.5904 29.6001 21.6391 31.0352C22.4254 32.1115 23.2519 32.8897 24.1657 33.4144C25.0482 33.9212 26.0728 34.1676 27.2981 34.1676C27.4327 34.1676 27.5723 34.1647 27.7151 34.1588C27.7691 33.7241 27.889 32.8933 28.0628 32.4232C28.3475 31.656 28.9383 31.1984 29.6436 31.1984Z" fill="white"/>
</g>
<defs>
<filter id="filter0_bd_1130_490" x="-12" y="-12" width="80" height="80" filterUnits="userSpaceOnUse" color-interpolation-filters="sRGB">
<feFlood flood-opacity="0" result="BackgroundImageFix"/>
<feGaussianBlur in="BackgroundImageFix" stdDeviation="10"/>
<feComposite in2="SourceAlpha" operator="in" result="effect1_backgroundBlur_1130_490"/>
<feColorMatrix in="SourceAlpha" type="matrix" values="0 0 0 0 0 0 0 0 0 0 0 0 0 0 0 0 0 0 127 0" result="hardAlpha"/>
<feOffset/>
<feGaussianBlur stdDeviation="4"/>
<feComposite in2="hardAlpha" operator="out"/>
<feColorMatrix type="matrix" values="0 0 0 0 0.843137 0 0 0 0 0.356863 0 0 0 0 0.2 0 0 0 0.1 0"/>
<feBlend mode="normal" in2="effect1_backgroundBlur_1130_490" result="effect2_dropShadow_1130_490"/>
<feBlend mode="normal" in="SourceGraphic" in2="effect2_dropShadow_1130_490" result="shape"/>
</filter>
</defs>
</svg>
