<svg width="56" height="56" viewBox="0 0 56 56" fill="none" xmlns="http://www.w3.org/2000/svg">
<g filter="url(#filter0_bd_1130_492)">
<rect x="8.5" y="8.5" width="39" height="39" rx="19.5" stroke="white" shape-rendering="crispEdges"/>
<path d="M32.2985 36.25C31.9335 36.25 31.5836 36.1398 31.2868 35.9315C31.2807 35.9272 31.2747 35.9228 31.2687 35.9184L26.8556 32.6352L25.0304 34.3012C24.7385 34.5805 24.3522 34.7341 23.9407 34.7341C23.2616 34.7341 22.6684 34.3186 22.4647 33.7001C22.4611 33.6891 22.4576 33.6781 22.4545 33.6669L21.3895 29.8524L18.0219 28.9014C17.4283 28.7338 17.0275 28.2432 17.0014 27.6517C16.9751 27.06 17.331 26.5388 17.908 26.3237L34.5771 20.1107C34.7743 20.0372 34.9797 20 35.1879 20C35.6926 20 36.1664 20.217 36.4878 20.5953C36.8059 20.9698 36.9289 21.4569 36.8251 21.9314L33.979 34.9454C33.8138 35.7013 33.107 36.25 32.2985 36.25ZM32.2593 34.674C32.2725 34.6823 32.2846 34.6859 32.2985 34.6859C32.3053 34.6859 32.3655 34.6843 32.3785 34.6252L35.2245 21.6112C35.2277 21.5966 35.2265 21.5907 35.2187 21.5815C35.2102 21.5715 35.1968 21.5639 35.1878 21.5639C35.1837 21.5639 35.1777 21.5653 35.1708 21.5679L19.0737 27.5676L22.2924 28.4767C22.5657 28.5538 22.7772 28.7616 22.8508 29.0249L23.9864 33.092L26.2365 31.0382C26.5295 30.7707 26.9832 30.7488 27.3029 30.9867L32.2593 34.674Z" fill="white"/>
<path d="M24.8857 33.7363C24.9113 33.8158 25.8481 32.6958 25.858 32.613L25.4379 30.6457C25.3826 30.3865 25.4807 30.1193 25.6934 29.9502L33.3947 23.8294C33.5801 23.6725 33.3648 23.3959 33.1546 23.5205L24.0982 28.8036C23.8835 28.9289 23.7727 29.1684 23.8202 29.4046L24.8857 33.7363Z" fill="white"/>
</g>
<defs>
<filter id="filter0_bd_1130_492" x="-12" y="-12" width="80" height="80" filterUnits="userSpaceOnUse" color-interpolation-filters="sRGB">
<feFlood flood-opacity="0" result="BackgroundImageFix"/>
<feGaussianBlur in="BackgroundImageFix" stdDeviation="10"/>
<feComposite in2="SourceAlpha" operator="in" result="effect1_backgroundBlur_1130_492"/>
<feColorMatrix in="SourceAlpha" type="matrix" values="0 0 0 0 0 0 0 0 0 0 0 0 0 0 0 0 0 0 127 0" result="hardAlpha"/>
<feOffset/>
<feGaussianBlur stdDeviation="4"/>
<feComposite in2="hardAlpha" operator="out"/>
<feColorMatrix type="matrix" values="0 0 0 0 0.843137 0 0 0 0 0.356863 0 0 0 0 0.2 0 0 0 0.1 0"/>
<feBlend mode="normal" in2="effect1_backgroundBlur_1130_492" result="effect2_dropShadow_1130_492"/>
<feBlend mode="normal" in="SourceGraphic" in2="effect2_dropShadow_1130_492" result="shape"/>
</filter>
</defs>
</svg>
