<svg width="44" height="44" viewBox="0 0 44 44" fill="none" xmlns="http://www.w3.org/2000/svg">
<g id="services icons">
<mask id="mask0_1080_561" style="mask-type:alpha" maskUnits="userSpaceOnUse" x="0" y="0" width="44" height="44">
<rect id="Bounding box" width="44" height="44" fill="#D9D9D9"/>
</mask>
<g mask="url(#mask0_1080_561)">
<path id="ad_units" d="M15.1249 15.5832V12.8333H28.8748V15.5832H15.1249ZM13.3974 41.2499C12.4713 41.2499 11.6874 40.9291 11.0458 40.2874C10.4041 39.6457 10.0833 38.8619 10.0833 37.9358V6.06412C10.0833 5.13804 10.4041 4.35417 11.0458 3.7125C11.6874 3.07083 12.4713 2.75 13.3974 2.75H30.6024C31.5285 2.75 32.3123 3.07083 32.954 3.7125C33.5957 4.35417 33.9165 5.13804 33.9165 6.06412V37.9358C33.9165 38.8619 33.5957 39.6457 32.954 40.2874C32.3123 40.9291 31.5285 41.2499 30.6024 41.2499H13.3974ZM12.8332 36.2082V37.9358C12.8332 38.0768 12.892 38.2061 13.0095 38.3237C13.127 38.4412 13.2563 38.5 13.3974 38.5H30.6024C30.7434 38.5 30.8727 38.4412 30.9903 38.3237C31.1078 38.2061 31.1665 38.0768 31.1665 37.9358V36.2082H12.8332ZM12.8332 33.4583H31.1665V10.5416H12.8332V33.4583ZM12.8332 7.79167H31.1665V6.06412C31.1665 5.92307 31.1078 5.79378 30.9903 5.67623C30.8727 5.55871 30.7434 5.49996 30.6024 5.49996H13.3974C13.2563 5.49996 13.127 5.55871 13.0095 5.67623C12.892 5.79378 12.8332 5.92307 12.8332 6.06412V7.79167Z" fill="#290656"/>
</g>
</g>
</svg>
