<svg width="44" height="44" viewBox="0 0 44 44" fill="none" xmlns="http://www.w3.org/2000/svg">
<g id="services icons">
<mask id="mask0_1080_522" style="mask-type:alpha" maskUnits="userSpaceOnUse" x="0" y="0" width="44" height="44">
<rect id="Bounding box" width="44" height="44" fill="#D9D9D9"/>
</mask>
<g mask="url(#mask0_1080_522)">
<path id="captive_portal" d="M18.4496 36.159C17.7468 35.0801 17.1216 33.9072 16.574 32.6403C16.0263 31.3734 15.5856 30.0713 15.2518 28.7339H9.03252C10.0127 30.6495 11.2996 32.246 12.8932 33.5235C14.4868 34.801 16.3389 35.6794 18.4496 36.159ZM7.87968 25.984H14.6948C14.5796 25.3023 14.4962 24.6342 14.4445 23.9796C14.3928 23.325 14.3669 22.6651 14.3669 21.9999C14.3669 21.3348 14.3928 20.6749 14.4445 20.0203C14.4962 19.3657 14.5796 18.6976 14.6948 18.0159H7.87968C7.7034 18.6388 7.56825 19.2863 7.47424 19.9586C7.38022 20.6308 7.33321 21.3112 7.33321 21.9999C7.33321 22.6886 7.38022 23.3691 7.47424 24.0413C7.56825 24.7135 7.7034 25.3611 7.87968 25.984ZM9.03252 15.266H15.2518C15.5621 13.9169 15.9969 12.6 16.5563 11.3155C17.1158 10.031 17.7468 8.87278 18.4496 7.84092C16.3977 8.2969 14.5573 9.17244 12.9284 10.4675C11.2995 11.7626 10.0009 13.3621 9.03252 15.266ZM18.0758 15.266H25.9239C25.522 13.7688 25.0014 12.3891 24.3621 11.1269C23.7228 9.86471 22.9354 8.61309 21.9999 7.37204C21.0644 8.56606 20.2829 9.79417 19.6553 11.0564C19.0277 12.3185 18.5012 13.7218 18.0758 15.266ZM28.7479 15.266H34.9672C33.9988 13.3621 32.7002 11.7597 31.0713 10.4587C29.4425 9.15777 27.6021 8.28517 25.5501 7.84092C26.1941 8.86102 26.7959 10.0133 27.3553 11.2979C27.9147 12.5824 28.3789 13.9051 28.7479 15.266ZM21.9999 39.4166C19.6118 39.4166 17.3584 38.9588 15.2395 38.0433C13.1206 37.1278 11.2726 35.8815 9.69541 34.3044C8.11829 32.7272 6.87199 30.8792 5.95651 28.7603C5.041 26.6414 4.58325 24.388 4.58325 21.9999C4.58325 19.5931 5.041 17.3349 5.95651 15.2254C6.87199 13.116 8.11829 11.2726 9.69541 9.69547C11.2726 8.11835 13.1206 6.87205 15.2395 5.95657C17.3584 5.04107 19.6118 4.58331 21.9999 4.58331C24.4067 4.58331 26.6649 5.04107 28.7744 5.95657C30.8839 6.87205 32.7272 8.11835 34.3043 9.69547C35.8815 11.2726 37.1278 13.116 38.0432 15.2254C38.9587 17.3349 39.4165 19.5931 39.4165 21.9999C39.4165 22.3173 39.4089 22.6404 39.3936 22.9695C39.3783 23.2985 39.3495 23.6217 39.3072 23.9391H36.5114C36.5725 23.6217 36.6137 23.3033 36.6348 22.9836C36.656 22.6639 36.6665 22.336 36.6665 21.9999C36.6665 21.3112 36.6195 20.6308 36.5255 19.9586C36.4315 19.2863 36.2963 18.6388 36.1201 18.0159H29.305C29.4201 18.6976 29.5036 19.3657 29.5553 20.0203C29.607 20.6749 29.6328 21.3348 29.6328 21.9999C29.6328 22.336 29.6299 22.661 29.624 22.9748C29.6182 23.2886 29.5999 23.61 29.5694 23.9391H26.8194C26.85 23.6217 26.8682 23.3033 26.8741 22.9836C26.88 22.6639 26.8829 22.336 26.8829 21.9999C26.8829 21.3112 26.8571 20.6455 26.8054 20.0027C26.7536 19.3598 26.6702 18.6976 26.555 18.0159H17.4447C17.3296 18.6976 17.2461 19.3598 17.1944 20.0027C17.1427 20.6455 17.1168 21.3112 17.1168 21.9999C17.1168 22.6886 17.1427 23.3544 17.1944 23.9972C17.2461 24.6401 17.3296 25.3023 17.4447 25.984H23.939V28.7339H18.0758C18.5012 30.2663 19.0366 31.6784 19.6818 32.97C20.3269 34.2615 21.0996 35.4808 21.9999 36.6278C22.3595 36.1507 22.6979 35.663 23.0153 35.1647C23.3326 34.6664 23.6405 34.1575 23.939 33.6381V39.3072C23.6217 39.3496 23.3032 39.3784 22.9835 39.3936C22.6639 39.4089 22.336 39.4166 21.9999 39.4166ZM36.5749 38.5351L30.7082 32.6684V37.3999H27.9583V27.9583H37.3998V30.7082H32.6225L38.4892 36.5749L36.5749 38.5351Z" fill="#290656"/>
</g>
</g>
</svg>
