<svg width="44" height="44" viewBox="0 0 44 44" fill="none" xmlns="http://www.w3.org/2000/svg">
<g id="services icons">
<mask id="mask0_587_594" style="mask-type:alpha" maskUnits="userSpaceOnUse" x="0" y="0" width="44" height="44">
<rect id="Bounding box" width="44" height="44" fill="#D9D9D9"/>
</mask>
<g mask="url(#mask0_587_594)">
<path id="palette" d="M21.9644 39.4166C19.5881 39.4166 17.3435 38.9589 15.2304 38.0434C13.1174 37.1279 11.2723 35.8816 9.69517 34.3045C8.11804 32.7273 6.87174 30.8793 5.95627 28.7604C5.04076 26.6415 4.58301 24.388 4.58301 22C4.58301 19.5814 5.0531 17.3127 5.9933 15.1938C6.93346 13.0749 8.21032 11.2316 9.82387 9.66382C11.4374 8.0961 13.3248 6.85744 15.486 5.94783C17.6473 5.03819 19.9524 4.58337 22.4015 4.58337C24.6932 4.58337 26.865 4.97413 28.9169 5.75565C30.9688 6.53717 32.771 7.61896 34.3235 9.00102C35.8759 10.383 37.1128 12.0254 38.0342 13.9281C38.9556 15.8307 39.4163 17.8938 39.4163 20.1173C39.4163 23.2903 38.4731 25.7724 36.5869 27.5634C34.7007 29.3544 32.2827 30.25 29.333 30.25H26.0118C25.49 30.25 25.0728 30.4204 24.7602 30.7612C24.4476 31.102 24.2913 31.5051 24.2913 31.9705C24.2913 32.537 24.5204 33.1258 24.9788 33.7369C25.4371 34.348 25.6663 35.0496 25.6663 35.8417C25.6663 37.0521 25.3313 37.9506 24.6614 38.537C23.9916 39.1234 23.0926 39.4166 21.9644 39.4166ZM11.9163 23.375C12.5697 23.375 13.115 23.1564 13.5522 22.7192C13.9893 22.282 14.2079 21.7367 14.2079 21.0833C14.2079 20.4299 13.9893 19.8846 13.5522 19.4474C13.115 19.0103 12.5697 18.7917 11.9163 18.7917C11.2629 18.7917 10.7176 19.0103 10.2804 19.4474C9.84325 19.8846 9.62468 20.4299 9.62468 21.0833C9.62468 21.7367 9.84325 22.282 10.2804 22.7192C10.7176 23.1564 11.2629 23.375 11.9163 23.375ZM17.4163 16.0416C18.0697 16.0416 18.615 15.823 19.0522 15.3859C19.4893 14.9487 19.7079 14.4034 19.7079 13.75C19.7079 13.0966 19.4893 12.5513 19.0522 12.1141C18.615 11.677 18.0697 11.4584 17.4163 11.4584C16.7629 11.4584 16.2176 11.677 15.7804 12.1141C15.3433 12.5513 15.1247 13.0966 15.1247 13.75C15.1247 14.4034 15.3433 14.9487 15.7804 15.3859C16.2176 15.823 16.7629 16.0416 17.4163 16.0416ZM26.583 16.0416C27.2364 16.0416 27.7817 15.823 28.2188 15.3859C28.656 14.9487 28.8746 14.4034 28.8746 13.75C28.8746 13.0966 28.656 12.5513 28.2188 12.1141C27.7817 11.677 27.2364 11.4584 26.583 11.4584C25.9296 11.4584 25.3843 11.677 24.9471 12.1141C24.5099 12.5513 24.2913 13.0966 24.2913 13.75C24.2913 14.4034 24.5099 14.9487 24.9471 15.3859C25.3843 15.823 25.9296 16.0416 26.583 16.0416ZM32.083 23.375C32.7364 23.375 33.2817 23.1564 33.7188 22.7192C34.156 22.282 34.3746 21.7367 34.3746 21.0833C34.3746 20.4299 34.156 19.8846 33.7188 19.4474C33.2817 19.0103 32.7364 18.7917 32.083 18.7917C31.4296 18.7917 30.8843 19.0103 30.4471 19.4474C30.0099 19.8846 29.7913 20.4299 29.7913 21.0833C29.7913 21.7367 30.0099 22.282 30.4471 22.7192C30.8843 23.1564 31.4296 23.375 32.083 23.375ZM21.9644 36.6667C22.2629 36.6667 22.4962 36.5932 22.6642 36.4463C22.8323 36.2994 22.9163 36.0979 22.9163 35.8417C22.9163 35.4139 22.6871 34.9332 22.2288 34.3997C21.7705 33.8661 21.5413 33.0306 21.5413 31.8929C21.5413 30.5861 21.9844 29.5273 22.8705 28.7164C23.7566 27.9055 24.8413 27.5 26.1246 27.5H29.333C31.4907 27.5 33.2523 26.8677 34.6179 25.6032C35.9835 24.3386 36.6663 22.51 36.6663 20.1173C36.6663 16.4083 35.2443 13.3504 32.4003 10.9436C29.5562 8.53674 26.2233 7.33333 22.4015 7.33333C18.2107 7.33333 14.6516 8.75416 11.7242 11.5958C8.7967 14.4375 7.33296 17.9056 7.33296 22C7.33296 26.0639 8.76143 29.5243 11.6184 32.3812C14.4753 35.2382 17.924 36.6667 21.9644 36.6667Z" fill="#5430B6"/>
</g>
</g>
</svg>
