<svg width="44" height="44" viewBox="0 0 44 44" fill="none" xmlns="http://www.w3.org/2000/svg">
<g id="Property 1=palette">
<mask id="mask0_27_556" style="mask-type:alpha" maskUnits="userSpaceOnUse" x="0" y="0" width="44" height="44">
<rect id="Bounding box" width="44" height="44" fill="#D9D9D9"/>
</mask>
<g mask="url(#mask0_27_556)">
<path id="palette" d="M21.9649 39.4166C19.5886 39.4166 17.3439 38.9589 15.2309 38.0434C13.1179 37.1279 11.2728 35.8816 9.69565 34.3045C8.11853 32.7273 6.87223 30.8793 5.95675 28.7604C5.04125 26.6415 4.5835 24.388 4.5835 22C4.5835 19.5814 5.05359 17.3127 5.99379 15.1938C6.93395 13.0749 8.21081 11.2316 9.82435 9.66382C11.4379 8.0961 13.3253 6.85744 15.4865 5.94783C17.6477 5.03819 19.9529 4.58337 22.402 4.58337C24.6937 4.58337 26.8655 4.97413 28.9174 5.75565C30.9693 6.53717 32.7715 7.61896 34.324 9.00102C35.8764 10.383 37.1133 12.0254 38.0347 13.9281C38.9561 15.8307 39.4167 17.8938 39.4167 20.1173C39.4167 23.2903 38.4736 25.7724 36.5874 27.5634C34.7012 29.3544 32.2832 30.25 29.3335 30.25H26.0123C25.4905 30.25 25.0733 30.4204 24.7607 30.7612C24.448 31.102 24.2917 31.5051 24.2917 31.9705C24.2917 32.537 24.5209 33.1258 24.9792 33.7369C25.4376 34.348 25.6667 35.0496 25.6667 35.8417C25.6667 37.0521 25.3318 37.9506 24.6619 38.537C23.9921 39.1234 23.093 39.4166 21.9649 39.4166ZM11.9168 23.375C12.5702 23.375 13.1155 23.1564 13.5527 22.7192C13.9898 22.282 14.2084 21.7367 14.2084 21.0833C14.2084 20.4299 13.9898 19.8846 13.5527 19.4474C13.1155 19.0103 12.5702 18.7917 11.9168 18.7917C11.2634 18.7917 10.7181 19.0103 10.2809 19.4474C9.84374 19.8846 9.62516 20.4299 9.62516 21.0833C9.62516 21.7367 9.84374 22.282 10.2809 22.7192C10.7181 23.1564 11.2634 23.375 11.9168 23.375ZM17.4168 16.0416C18.0702 16.0416 18.6155 15.823 19.0527 15.3859C19.4898 14.9487 19.7084 14.4034 19.7084 13.75C19.7084 13.0966 19.4898 12.5513 19.0527 12.1141C18.6155 11.677 18.0702 11.4584 17.4168 11.4584C16.7634 11.4584 16.2181 11.677 15.7809 12.1141C15.3437 12.5513 15.1252 13.0966 15.1252 13.75C15.1252 14.4034 15.3437 14.9487 15.7809 15.3859C16.2181 15.823 16.7634 16.0416 17.4168 16.0416ZM26.5835 16.0416C27.2369 16.0416 27.7821 15.823 28.2193 15.3859C28.6565 14.9487 28.8751 14.4034 28.8751 13.75C28.8751 13.0966 28.6565 12.5513 28.2193 12.1141C27.7821 11.677 27.2369 11.4584 26.5835 11.4584C25.9301 11.4584 25.3848 11.677 24.9476 12.1141C24.5104 12.5513 24.2918 13.0966 24.2918 13.75C24.2918 14.4034 24.5104 14.9487 24.9476 15.3859C25.3848 15.823 25.9301 16.0416 26.5835 16.0416ZM32.0835 23.375C32.7369 23.375 33.2821 23.1564 33.7193 22.7192C34.1565 22.282 34.3751 21.7367 34.3751 21.0833C34.3751 20.4299 34.1565 19.8846 33.7193 19.4474C33.2821 19.0103 32.7369 18.7917 32.0835 18.7917C31.4301 18.7917 30.8848 19.0103 30.4476 19.4474C30.0104 19.8846 29.7918 20.4299 29.7918 21.0833C29.7918 21.7367 30.0104 22.282 30.4476 22.7192C30.8848 23.1564 31.4301 23.375 32.0835 23.375ZM21.9649 36.6667C22.2634 36.6667 22.4966 36.5932 22.6647 36.4463C22.8328 36.2994 22.9168 36.0979 22.9168 35.8417C22.9168 35.4139 22.6876 34.9332 22.2293 34.3997C21.771 33.8661 21.5418 33.0306 21.5418 31.8929C21.5418 30.5861 21.9848 29.5273 22.871 28.7164C23.7571 27.9055 24.8418 27.5 26.1251 27.5H29.3335C31.4912 27.5 33.2528 26.8677 34.6184 25.6032C35.984 24.3386 36.6668 22.51 36.6668 20.1173C36.6668 16.4083 35.2448 13.3504 32.4008 10.9436C29.5567 8.53674 26.2238 7.33333 22.402 7.33333C18.2112 7.33333 14.6521 8.75416 11.7247 11.5958C8.79718 14.4375 7.33345 17.9056 7.33345 22C7.33345 26.0639 8.76192 29.5243 11.6189 32.3812C14.4758 35.2382 17.9245 36.6667 21.9649 36.6667Z" fill="#290656"/>
</g>
</g>
</svg>
