<svg width="44" height="44" viewBox="0 0 44 44" fill="none" xmlns="http://www.w3.org/2000/svg">
<g id="services icons">
<mask id="mask0_1080_423" style="mask-type:alpha" maskUnits="userSpaceOnUse" x="0" y="0" width="44" height="44">
<rect id="Bounding box" width="44" height="44" fill="#D9D9D9"/>
</mask>
<g mask="url(#mask0_1080_423)">
<path id="build" d="M32.041 37.7737L20.491 26.1673C19.8446 26.447 19.1875 26.6626 18.5197 26.8142C17.8519 26.9658 17.1434 27.0416 16.3942 27.0416C13.4659 27.0416 10.9769 26.0167 8.92718 23.967C6.87742 21.9172 5.85254 19.4282 5.85254 16.5C5.85254 15.5528 5.97299 14.6473 6.21389 13.7835C6.45482 12.9198 6.79739 12.0977 7.24161 11.3173L13.8275 17.868L17.7621 13.9333L11.2468 7.38269C12.0271 6.93848 12.8438 6.59004 13.697 6.33737C14.5501 6.08471 15.4492 5.95837 16.3942 5.95837C19.3224 5.95837 21.8114 6.98325 23.8611 9.03301C25.9109 11.0828 26.9358 13.5718 26.9358 16.5C26.9358 17.2733 26.8629 17.9937 26.7172 18.6612C26.5715 19.3287 26.3529 19.9739 26.0614 20.5968L37.6679 32.1469C37.9875 32.4706 38.1474 32.8618 38.1474 33.3204C38.1474 33.7791 37.9888 34.1669 37.6718 34.4839L34.3429 37.8129C34.0258 38.1299 33.6428 38.2826 33.1939 38.2708C32.7449 38.2591 32.3607 38.0934 32.041 37.7737ZM33.2115 35.0238L34.8897 33.3455L22.6804 21.1362C23.1952 20.5016 23.5748 19.7794 23.8192 18.9697C24.0637 18.16 24.1859 17.3368 24.1859 16.5C24.1859 14.4669 23.4596 12.6676 22.007 11.1022C20.5544 9.53681 18.7164 8.7694 16.4928 8.79995L20.4662 12.7734C20.7977 13.1048 20.9634 13.4915 20.9634 13.9333C20.9634 14.3752 20.7977 14.7618 20.4662 15.0932L14.9874 20.5721C14.656 20.9035 14.2694 21.0692 13.8275 21.0692C13.3856 21.0692 12.999 20.9035 12.6676 20.5721L8.69411 16.5986C8.69882 18.9515 9.48975 20.8219 11.0669 22.2098C12.644 23.5977 14.4198 24.2917 16.3942 24.2917C17.1965 24.2917 17.9987 24.1724 18.801 23.9338C19.6033 23.6953 20.337 23.3221 21.0022 22.8145L33.2115 35.0238Z" fill="#290656"/>
</g>
</g>
</svg>
