<svg width="48" height="48" viewBox="0 0 48 48" fill="none" xmlns="http://www.w3.org/2000/svg">
<g id="cross">
<circle id="Ellipse 14" cx="24" cy="24" r="23.5" fill="white" stroke="#D9D9E3"/>
<g id="close">
<mask id="mask0_708_417" style="mask-type:alpha" maskUnits="userSpaceOnUse" x="7" y="7" width="34" height="34">
<rect id="Bounding box" x="7.0293" y="24" width="24" height="24" transform="rotate(-45 7.0293 24)" fill="#D9D9D9"/>
</mask>
<g mask="url(#mask0_708_417)">
<path id="close_2" d="M24.7451 24.7452L24.7451 31.9196C24.7451 32.1154 24.6721 32.2886 24.5261 32.439C24.3802 32.5895 24.2048 32.6648 23.9999 32.6647C23.795 32.6648 23.6196 32.5918 23.4737 32.4458C23.3277 32.2999 23.2548 32.1245 23.2548 31.9196L23.2548 24.7452L16.0803 24.7451C15.8845 24.7452 15.7114 24.6722 15.5609 24.5262C15.4104 24.3803 15.3352 24.2049 15.3352 24C15.3352 23.7951 15.4081 23.6197 15.5541 23.4738C15.7 23.3278 15.8754 23.2548 16.0803 23.2549L23.2548 23.2548L23.2548 16.0804C23.2548 15.8846 23.3277 15.7114 23.4737 15.561C23.6196 15.4105 23.795 15.3352 23.9999 15.3353C24.2048 15.3352 24.3802 15.4082 24.5262 15.5542C24.6721 15.7001 24.7451 15.8755 24.7451 16.0804L24.7451 23.2548L31.9195 23.2549C32.1153 23.2548 32.2885 23.3278 32.439 23.4738C32.5894 23.6197 32.6647 23.7951 32.6647 24C32.6647 24.2049 32.5917 24.3803 32.4458 24.5262C32.2998 24.6722 32.1244 24.7452 31.9195 24.7451L24.7451 24.7452Z" fill="#797282"/>
</g>
</g>
</g>
</svg>
