<svg width="24" height="24" viewBox="0 0 24 24" fill="none" xmlns="http://www.w3.org/2000/svg">
<g id="check">
<mask id="mask0_1194_1534" style="mask-type:alpha" maskUnits="userSpaceOnUse" x="0" y="0" width="24" height="24">
<rect id="Bounding box" width="24" height="24" fill="#D9D9D9"/>
</mask>
<g mask="url(#mask0_1194_1534)">
<path id="check_2" d="M9.54988 15.5154L18.1884 6.87695C18.3371 6.72824 18.5137 6.65227 18.7182 6.64905C18.9226 6.64585 19.1024 6.72182 19.2576 6.87695C19.4127 7.03207 19.4903 7.21027 19.4903 7.41155C19.4903 7.61282 19.4127 7.79102 19.2576 7.94615L10.1826 17.0211C10.0018 17.2019 9.7909 17.2923 9.54988 17.2923C9.30887 17.2923 9.09798 17.2019 8.91721 17.0211L4.74221 12.8462C4.59349 12.6974 4.52009 12.5208 4.52201 12.3164C4.52394 12.1119 4.60247 11.9321 4.75758 11.777C4.91272 11.6218 5.09092 11.5443 5.29218 11.5443C5.49347 11.5443 5.67167 11.6218 5.82678 11.777L9.54988 15.5154Z" fill="#290656"/>
</g>
</g>
</svg>
