<svg width="48" height="48" viewBox="0 0 48 48" fill="none" xmlns="http://www.w3.org/2000/svg">
<rect width="48" height="48" fill="#454545"/>
<g id="main">
<g id="FAQs">
<rect width="1440" height="769" transform="translate(-1086 -260)" fill="white"/>
<g id="FAQs_2">
<g id="FAQ" filter="url(#filter0_d_0_1)">
<rect x="-804" y="-16" width="868" height="173" rx="16" fill="white"/>
<rect x="-803.5" y="-15.5" width="867" height="172" rx="15.5" stroke="#D9D9E3"/>
<g id="Frame 5">
<g id="cross">
<circle id="Ellipse 14" cx="24" cy="24" r="23.5" fill="white" stroke="#D9D9E3"/>
<g id="close">
<mask id="mask0_0_1" style="mask-type:alpha" maskUnits="userSpaceOnUse" x="12" y="12" width="24" height="24">
<rect id="Bounding box" x="12" y="12" width="24" height="24" fill="#D9D9D9"/>
</mask>
<g mask="url(#mask0_0_1)">
<path id="close_2" d="M24 25.0538L18.9269 30.1269C18.7884 30.2654 18.6144 30.3362 18.4048 30.3394C18.1952 30.3426 18.018 30.2718 17.8731 30.1269C17.7282 29.982 17.6558 29.8064 17.6558 29.6C17.6558 29.3936 17.7282 29.218 17.8731 29.0731L22.9462 24L17.8731 18.9269C17.7346 18.7884 17.6638 18.6144 17.6606 18.4048C17.6574 18.1952 17.7282 18.018 17.8731 17.8731C18.018 17.7282 18.1936 17.6558 18.4 17.6558C18.6064 17.6558 18.782 17.7282 18.9269 17.8731L24 22.9462L29.0731 17.8731C29.2115 17.7346 29.3856 17.6638 29.5952 17.6606C29.8048 17.6574 29.982 17.7282 30.1269 17.8731C30.2718 18.018 30.3442 18.1936 30.3442 18.4C30.3442 18.6064 30.2718 18.782 30.1269 18.9269L25.0538 24L30.1269 29.0731C30.2654 29.2115 30.3362 29.3856 30.3394 29.5952C30.3426 29.8048 30.2718 29.982 30.1269 30.1269C29.982 30.2718 29.8064 30.3442 29.6 30.3442C29.3936 30.3442 29.218 30.2718 29.0731 30.1269L24 25.0538Z" fill="#797282"/>
</g>
</g>
</g>
</g>
</g>
</g>
</g>
</g>
<defs>
<filter id="filter0_d_0_1" x="-819" y="-31" width="898" height="203" filterUnits="userSpaceOnUse" color-interpolation-filters="sRGB">
<feFlood flood-opacity="0" result="BackgroundImageFix"/>
<feColorMatrix in="SourceAlpha" type="matrix" values="0 0 0 0 0 0 0 0 0 0 0 0 0 0 0 0 0 0 127 0" result="hardAlpha"/>
<feOffset/>
<feGaussianBlur stdDeviation="7.5"/>
<feComposite in2="hardAlpha" operator="out"/>
<feColorMatrix type="matrix" values="0 0 0 0 0 0 0 0 0 0 0 0 0 0 0 0 0 0 0.1 0"/>
<feBlend mode="normal" in2="BackgroundImageFix" result="effect1_dropShadow_0_1"/>
<feBlend mode="normal" in="SourceGraphic" in2="effect1_dropShadow_0_1" result="shape"/>
</filter>
</defs>
</svg>
